<svg id="Layer_1" xmlns="http://www.w3.org/2000/svg" viewBox="-429 231 100 100"><style>.st0{fill:#414B71;} .st1{font-family:&apos;BaronNeue&apos;;} .st2{font-size:24px;} .st3{fill:#49C493;} .st4{fill:#E2E5ED;} .st5{fill:#56CFF5;} .st6{fill:#E3E6ED;}</style><text transform="translate(-419.36 318.403)" class="st0 st1 st2">AbooK</text><path class="st3" d="M-404.7 275.9v-6.1c.1-.4.3-.8.4-1.2 1.8-10.7 9.7-18.9 20.3-21.2.9-.2 1.8-.4 2.6-.5h5.5c.2.1.5.2.7.2 14.8 2.2 24.8 16.1 21.9 30.6-2.4 12.1-12.9 20.9-25.2 21-12.4.1-23-8.4-25.6-20.5-.2-.7-.5-1.5-.6-2.3zm11.3-15.2h-.5c-1.9 0-1.9 0-1.9 1.8v22.7c0 1.2.2 1.4 1.4 1.4h10.4c1.1 0 1.9.3 2.6 1.2 1.4 1.7 3.6 1.7 5.1 0 .7-.9 1.6-1.2 2.6-1.2h10.2c1.5 0 1.6-.1 1.6-1.6v-22c0-2.4 0-2.4-2.4-2.4v-3.2h-11c-1.5 0-2.9.1-3.6 1.9-.7-1.5-1.7-1.9-3.1-1.9h-11.5c.1 1.2.1 2.2.1 3.3z"/><path class="st0" d="M-364.2 282.5v-20.3-1.6c2.4 0 2.4 0 2.4 2.4v22c0 1.5-.1 1.6-1.6 1.6h-10.2c-1.1 0-1.9.3-2.6 1.2-1.4 1.7-3.6 1.7-5.1 0-.7-.9-1.6-1.2-2.6-1.2h-10.4c-1.2 0-1.4-.2-1.4-1.4v-22.7c0-1.8 0-1.8 1.9-1.8h.5v23.5h12.2c1 0 1.8.1 2.4 1.2.5-1.2 1.4-1.2 2.3-1.2h12.2v-1.7z"/><path class="st4" d="M-364.2 282.5v1.6h-12.2c-1 0-1.8.1-2.3 1.2-.5-1.2-1.4-1.2-2.4-1.2h-12.2v-1.6h12.3c.8 0 1.5.4 2.5.6.5-.7 1.5-.6 2.5-.6 3.9.1 7.8 0 11.8 0z"/><path class="st5" d="M-387 265.5h-3.1V260h3.1v5.5z"/><path class="st4" d="M-376.7 280.2c.8-.6 8.8-.6 9.5-.1-.6.6-8.5.6-9.5.1zM-380.7 280c-1 .7-8.9.7-9.9.1.4-.2.6-.4.9-.4h8c.3 0 .5.2 1 .3zM-376.7 277.7c.8-.6 8.8-.6 9.5-.1-.5.6-8.5.7-9.5.1zM-380.9 277.7c-.8.6-8.8.6-9.5 0 .6-.6 8.6-.6 9.5 0zM-376.7 275.3c.8-.6 8.8-.6 9.5-.1-.6.6-8.5.7-9.5.1zM-390.5 275.3c.8-.6 8.8-.6 9.5 0-.6.5-8.5.6-9.5 0zM-376.7 272.9c.8-.6 8.8-.6 9.5-.1-.6.6-8.5.6-9.5.1zM-390.5 272.8c.8-.6 8.8-.6 9.5 0-.6.6-8.5.6-9.5 0zM-376.7 270.4c.8-.6 8.8-.6 9.5-.1-.6.6-8.5.7-9.5.1zM-380.9 270.4c-.8.6-8.8.6-9.5 0 .6-.6 8.6-.6 9.5 0zM-376.7 268c.8-.6 8.8-.6 9.5-.1-.6.6-8.5.7-9.5.1zM-380.9 267.9c-.8.6-8.8.6-9.5 0 .6-.5 8.6-.6 9.5 0zM-367.1 265.5c-.8.6-8.8.6-9.5.1.6-.6 8.5-.7 9.5-.1zM-367.1 263.1c-.8.6-8.8.6-9.5.1.5-.7 8.5-.7 9.5-.1zM-376.7 260.7c.8-.6 8.8-.6 9.5 0-.6.5-8.6.6-9.5 0z"/><path class="st6" d="M-380.9 265.5c-.7.6-3.3.6-4.2.1.4-.6 3.1-.7 4.2-.1zM-385.2 263.1c.8-.6 3.5-.6 4.2-.1-.5.6-3.3.7-4.2.1zM-385.3 260.4c1.6-.2 2.9-.2 4.4 0-.6.9-3.7.9-4.4 0z"/></svg>