<svg xmlns="http://www.w3.org/2000/svg" viewBox="0 0 100 100"><path d="M95 46.6v-7c0-.8-.7-1.4-1.6-1.4H87c-.9-2.6-2.1-5.2-3.4-7.5h2c.8-.1 1.4-.7 1.4-1.4v-7c0-.8-.7-1.4-1.6-1.4h-9.5c-7.5-7-17.6-11.4-28.8-11.4-10.1 0-19.4 3.6-26.6 9.5v65.4c7.3 5.9 16.5 9.5 26.6 9.5 11.1 0 21.2-4.3 28.8-11.4h9.5c.9 0 1.6-.6 1.6-1.4v-7c0-.7-.6-1.3-1.4-1.4h-2c1.3-2.3 2.5-4.9 3.4-7.5h6.3c.9 0 1.6-.6 1.6-1.4v-7c0-.8-.7-1.4-1.6-1.4H89c.1-1.2.2-2.5.2-3.8 0-1.3 0-2.5-.2-3.8h4.3c.9.1 1.7-.5 1.7-1.2zM49.9 27.9c5.9 0 10.6 4.7 10.6 10.6 0 5.9-4.7 10.6-10.6 10.6s-10.6-4.7-10.6-10.6 4.8-10.6 10.6-10.6zM31.9 71c0-12.7 1.8-19.7 5.7-25.2 2.5 4.2 7.1 7 12.3 7s9.8-2.8 12.3-7c4 5.6 5.7 12.5 5.7 25.2h-36zM13.2 76.7v-50C8 33.7 5 42.4 5 51.7s3 18 8.2 25z"/></svg>