<?xml version="1.0" encoding="utf-8"?>
<!-- Generator: Adobe Illustrator 19.0.0, SVG Export Plug-In . SVG Version: 6.00 Build 0)  -->
<svg version="1.1" id="Layer_1" xmlns="http://www.w3.org/2000/svg" xmlns:xlink="http://www.w3.org/1999/xlink" x="0px" y="0px"
	 viewBox="-429 231 100 100" style="enable-background:new -429 231 100 100;" xml:space="preserve">
<style type="text/css">
	.st0{fill:#414B71;}
	.st1{font-family:'BaronNeue';}
	.st2{font-size:24px;}
	.st3{fill:#49C493;}
	.st4{fill:#E2E5ED;}
	.st5{fill:#56CFF5;}
	.st6{fill:#E3E6ED;}
</style>
<text transform="matrix(1 0 0 1 -419.3612 318.4032)" class="st0 st1 st2">AbooK</text>
<g>
	<g>
		<path class="st3" d="M-404.7,275.9c0-2,0-4.1,0-6.1c0.1-0.4,0.3-0.8,0.4-1.2c1.8-10.7,9.7-18.9,20.3-21.2c0.9-0.2,1.8-0.4,2.6-0.5
			c1.8,0,3.6,0,5.5,0c0.2,0.1,0.5,0.2,0.7,0.2c14.8,2.2,24.8,16.1,21.9,30.6c-2.4,12.1-12.9,20.9-25.2,21
			c-12.4,0.1-23-8.4-25.6-20.5C-404.3,277.5-404.6,276.7-404.7,275.9z M-393.4,260.7c-0.2,0-0.3,0-0.5,0c-1.9,0-1.9,0-1.9,1.8
			c0,7.6,0,15.1,0,22.7c0,1.2,0.2,1.4,1.4,1.4c3.5,0,7,0,10.4,0c1.1,0,1.9,0.3,2.6,1.2c1.4,1.7,3.6,1.7,5.1,0
			c0.7-0.9,1.6-1.2,2.6-1.2c3.4,0,6.8,0,10.2,0c1.5,0,1.6-0.1,1.6-1.6c0-7.3,0-14.7,0-22c0-2.4,0-2.4-2.4-2.4c0-1.1,0-2.1,0-3.2
			c-3.8,0-7.4,0-11,0c-1.5,0-2.9,0.1-3.6,1.9c-0.7-1.5-1.7-1.9-3.1-1.9c-3.4,0-6.9,0-10.3,0c-0.4,0-0.7,0-1.2,0
			C-393.4,258.6-393.4,259.6-393.4,260.7z"/>
		<path class="st0" d="M-364.2,282.5c0-6.8,0-13.5,0-20.3c0-0.5,0-1.1,0-1.6c2.4,0,2.4,0,2.4,2.4c0,7.3,0,14.7,0,22
			c0,1.5-0.1,1.6-1.6,1.6c-3.4,0-6.8,0-10.2,0c-1.1,0-1.9,0.3-2.6,1.2c-1.4,1.7-3.6,1.7-5.1,0c-0.7-0.9-1.6-1.2-2.6-1.2
			c-3.5,0-7,0-10.4,0c-1.2,0-1.4-0.2-1.4-1.4c0-7.6,0-15.1,0-22.7c0-1.8,0-1.8,1.9-1.8c0.2,0,0.3,0,0.5,0c0,6.7,0,13.3,0,20
			c0,0.6,0,1.3,0,1.9c0,0.5,0,1,0,1.6c4.1,0,8.2,0,12.2,0c1,0,1.8,0.1,2.4,1.2c0.5-1.2,1.4-1.2,2.3-1.2c3.7,0,7.4,0,11.1,0
			c0.4,0,0.7,0,1.1,0C-364.2,283.5-364.2,283-364.2,282.5z"/>
		<path class="st4" d="M-364.2,282.5c0,0.5,0,1,0,1.6c-0.4,0-0.7,0-1.1,0c-3.7,0-7.4,0-11.1,0c-1,0-1.8,0.1-2.3,1.2
			c-0.5-1.2-1.4-1.2-2.4-1.2c-4,0-8.1,0-12.2,0c0-0.6,0-1.1,0-1.6c4.1,0,8.2,0,12.3,0c0.8,0,1.5,0.4,2.5,0.6
			c0.5-0.7,1.5-0.6,2.5-0.6C-372.1,282.6-368.2,282.5-364.2,282.5z"/>
		<path class="st5" d="M-387,265.5c-1.1,0-2.1,0-3.1,0c0-1.9,0-3.7,0-5.5c1,0,2,0,3.1,0C-387,261.8-387,263.6-387,265.5z"/>
		<path class="st4" d="M-376.7,280.2c0.8-0.6,8.8-0.6,9.5-0.1C-367.8,280.7-375.7,280.7-376.7,280.2z"/>
		<path class="st4" d="M-380.7,280c-1,0.7-8.9,0.7-9.9,0.1c0.4-0.2,0.6-0.4,0.9-0.4c2.7,0,5.3,0,8,0
			C-381.4,279.7-381.2,279.9-380.7,280z"/>
		<path class="st4" d="M-376.7,277.7c0.8-0.6,8.8-0.6,9.5-0.1C-367.7,278.2-375.7,278.3-376.7,277.7z"/>
		<path class="st4" d="M-380.9,277.7c-0.8,0.6-8.8,0.6-9.5,0C-389.8,277.1-381.8,277.1-380.9,277.7z"/>
		<path class="st4" d="M-376.7,275.3c0.8-0.6,8.8-0.6,9.5-0.1C-367.8,275.8-375.7,275.9-376.7,275.3z"/>
		<path class="st4" d="M-390.5,275.3c0.8-0.6,8.8-0.6,9.5,0C-381.6,275.8-389.5,275.9-390.5,275.3z"/>
		<path class="st4" d="M-376.7,272.9c0.8-0.6,8.8-0.6,9.5-0.1C-367.8,273.4-375.7,273.4-376.7,272.9z"/>
		<path class="st4" d="M-390.5,272.8c0.8-0.6,8.8-0.6,9.5,0C-381.6,273.4-389.5,273.4-390.5,272.8z"/>
		<path class="st4" d="M-376.7,270.4c0.8-0.6,8.8-0.6,9.5-0.1C-367.8,270.9-375.7,271-376.7,270.4z"/>
		<path class="st4" d="M-380.9,270.4c-0.8,0.6-8.8,0.6-9.5,0C-389.8,269.8-381.8,269.8-380.9,270.4z"/>
		<path class="st4" d="M-376.7,268c0.8-0.6,8.8-0.6,9.5-0.1C-367.8,268.5-375.7,268.6-376.7,268z"/>
		<path class="st4" d="M-380.9,267.9c-0.8,0.6-8.8,0.6-9.5,0C-389.8,267.4-381.8,267.3-380.9,267.9z"/>
		<path class="st4" d="M-367.1,265.5c-0.8,0.6-8.8,0.6-9.5,0.1C-376,265-368.1,264.9-367.1,265.5z"/>
		<path class="st4" d="M-367.1,263.1c-0.8,0.6-8.8,0.6-9.5,0.1C-376.1,262.5-368.1,262.5-367.1,263.1z"/>
		<path class="st4" d="M-376.7,260.7c0.8-0.6,8.8-0.6,9.5,0C-367.8,261.2-375.8,261.3-376.7,260.7z"/>
		<path class="st6" d="M-380.9,265.5c-0.7,0.6-3.3,0.6-4.2,0.1C-384.7,265-382,264.9-380.9,265.5z"/>
		<path class="st6" d="M-385.2,263.1c0.8-0.6,3.5-0.6,4.2-0.1C-381.5,263.6-384.3,263.7-385.2,263.1z"/>
		<path class="st6" d="M-385.3,260.4c1.6-0.2,2.9-0.2,4.4,0C-381.5,261.3-384.6,261.3-385.3,260.4z"/>
	</g>
</g>
</svg>
