<svg xmlns="http://www.w3.org/2000/svg" xmlns:xlink="http://www.w3.org/1999/xlink" version="1.1" x="0px" y="0px" viewBox="0 0 100 100" enable-background="new 0 0 100 100" xml:space="preserve"><g><g><g><path d="M95,46.6v-7c0-0.8-0.7-1.4-1.6-1.4H87c-0.9-2.6-2.1-5.2-3.4-7.5c0,0,2,0,2,0c0.8-0.1,1.4-0.7,1.4-1.4v-7     c0-0.8-0.7-1.4-1.6-1.4h-9.1c-0.1,0-0.3,0-0.4,0c-7.5-7-17.6-11.4-28.8-11.4C37,9.5,27.7,13.1,20.5,19v65.4     c7.3,5.9,16.5,9.5,26.6,9.5c11.1,0,21.2-4.3,28.8-11.4c0.1,0,0.3,0,0.4,0h9.1c0.9,0,1.6-0.6,1.6-1.4v-7c0-0.7-0.6-1.3-1.4-1.4     c0,0-2,0-2,0c1.3-2.3,2.5-4.9,3.4-7.5h6.3c0.9,0,1.6-0.6,1.6-1.4v-7c0-0.8-0.7-1.4-1.6-1.4h-4.3c0.1-1.2,0.2-2.5,0.2-3.8     c0-1.3,0-2.5-0.2-3.8h4.3C94.2,47.9,95,47.3,95,46.6z M49.9,27.9c5.9,0,10.6,4.7,10.6,10.6c0,5.9-4.7,10.6-10.6,10.6     s-10.6-4.7-10.6-10.6S44.1,27.9,49.9,27.9z M31.9,71c0-12.7,1.8-19.7,5.7-25.2c2.5,4.2,7.1,7,12.3,7s9.8-2.8,12.3-7     c4,5.6,5.7,12.5,5.7,25.2H31.9z"></path></g></g><g><path d="M13.2,76.7V26.7c-5.2,7-8.2,15.7-8.2,25S8,69.7,13.2,76.7z"></path></g></g></svg>